# xmcd
#
# Track frame offsets:
#	150
#	12955
#	26435
#	44852
#	61381
#	82554
#	96970
#	113162
#	128492
#	145855
#	161367
#	178757
#	194366
#	208643
#	225412
#	242770
#	262472
#	280325
#	295040
#	309742
#
# Disc length: 4564 seconds
#
# Revision: 3
# Processed by: cddbd v1.5.2PL0 Copyright (c) Steve Scherf et al.
# Submitted via: EasyCDDAExtractor 12.0.1.1
#
DISCID=1b11d214
DTITLE=Bellamy Brothers - The 25 Year Collection Vol. 1
DYEAR=2003
DGENRE=Country
TTITLE0=Let Your Love Flow
TTITLE1=Do You Love As Good As You Look
TTITLE2=Old Hippie
TTITLE3=Sugar Daddy
TTITLE4=If I Said You Have A Beautiful Body (Would You Hold It Against Me) - L
TTITLE4=ive
TTITLE5=Tired Of Getting My Butt Kicked
TTITLE6=Crazy From The Heart
TTITLE7=I Need More Of You
TTITLE8=Hard Way To Make An Easy Living
TTITLE9=I'd Lie To You For Your Love
TTITLE10=I Could Be Persuaded - Live
TTITLE11=Cowboy Beat
TTITLE12=What'll  I Do 
TTITLE13=Feelin' The Feelin'
TTITLE14=When I'm Away From You
TTITLE15=You Ain't Just Whistlin' Dixie
TTITLE16=Reggae Cowboy
TTITLE17=I Love Her Mind
TTITLE18=Rebels Without A Clue
TTITLE19=Redneck Girl - Live
EXTD=
EXTT0=
EXTT1=
EXTT2=
EXTT3=
EXTT4=
EXTT5=
EXTT6=
EXTT7=
EXTT8=
EXTT9=
EXTT10=
EXTT11=
EXTT12=
EXTT13=
EXTT14=
EXTT15=
EXTT16=
EXTT17=
EXTT18=
EXTT19=
PLAYORDER=
